<svg width="24" height="22" viewBox="0 0 24 22" fill="none" xmlns="http://www.w3.org/2000/svg">
<path d="M22.832 7.20815H20.1616L16.1533 1.19023C15.9938 0.951182 15.7459 0.78527 15.4641 0.728994C15.1823 0.672717 14.8897 0.730686 14.6507 0.890147C14.4116 1.04961 14.2457 1.2975 14.1895 1.57929C14.1332 1.86108 14.1911 2.15368 14.3506 2.39273L17.5584 7.20815H6.43903L9.65003 2.39273C9.80949 2.15368 9.86746 1.86108 9.81118 1.57929C9.7549 1.2975 9.58899 1.04961 9.34994 0.890147C9.1109 0.730686 8.81829 0.672717 8.5365 0.728994C8.25471 0.78527 8.00682 0.951182 7.84736 1.19023L3.83578 7.20815H1.16536C0.878046 7.20815 0.602496 7.32228 0.399332 7.52545C0.196168 7.72861 0.0820313 8.00416 0.0820312 8.29148C0.0820313 8.5788 0.196168 8.85435 0.399332 9.05751C0.602496 9.26068 0.878046 9.37481 1.16536 9.37481H2.2487V18.0415C2.2487 18.9034 2.59111 19.7301 3.2006 20.3396C3.81009 20.9491 4.63674 21.2915 5.4987 21.2915H18.4987C19.3606 21.2915 20.1873 20.9491 20.7968 20.3396C21.4063 19.7301 21.7487 18.9034 21.7487 18.0415V9.37481H22.832C23.1193 9.37481 23.3949 9.26068 23.5981 9.05751C23.8012 8.85435 23.9154 8.5788 23.9154 8.29148C23.9154 8.00416 23.8012 7.72861 23.5981 7.52545C23.3949 7.32228 23.1193 7.20815 22.832 7.20815ZM19.582 18.0415C19.582 18.3288 19.4679 18.6043 19.2647 18.8075C19.0616 19.0107 18.786 19.1248 18.4987 19.1248H5.4987C5.21138 19.1248 4.93583 19.0107 4.73266 18.8075C4.5295 18.6043 4.41536 18.3288 4.41536 18.0415V9.37481H19.582V18.0415Z" fill="#4D4D4D"/>
<path d="M7.66536 17.5C7.95268 17.5 8.22823 17.3859 8.43139 17.1827C8.63456 16.9795 8.74869 16.704 8.74869 16.4167V12.0833C8.74869 11.796 8.63456 11.5205 8.43139 11.3173C8.22823 11.1141 7.95268 11 7.66536 11C7.37805 11 7.1025 11.1141 6.89933 11.3173C6.69617 11.5205 6.58203 11.796 6.58203 12.0833V16.4167C6.58203 16.704 6.69617 16.9795 6.89933 17.1827C7.1025 17.3859 7.37805 17.5 7.66536 17.5Z" fill="#4D4D4D"/>
<path d="M11.9974 17.5C12.2847 17.5 12.5603 17.3859 12.7634 17.1827C12.9666 16.9795 13.0807 16.704 13.0807 16.4167V12.0833C13.0807 11.796 12.9666 11.5205 12.7634 11.3173C12.5603 11.1141 12.2847 11 11.9974 11C11.7101 11 11.4345 11.1141 11.2314 11.3173C11.0282 11.5205 10.9141 11.796 10.9141 12.0833V16.4167C10.9141 16.704 11.0282 16.9795 11.2314 17.1827C11.4345 17.3859 11.7101 17.5 11.9974 17.5Z" fill="#4D4D4D"/>
<path d="M16.3333 17.5C16.6207 17.5 16.8962 17.3859 17.0994 17.1827C17.3025 16.9795 17.4167 16.704 17.4167 16.4167V12.0833C17.4167 11.796 17.3025 11.5205 17.0994 11.3173C16.8962 11.1141 16.6207 11 16.3333 11C16.046 11 15.7705 11.1141 15.5673 11.3173C15.3641 11.5205 15.25 11.796 15.25 12.0833V16.4167C15.25 16.704 15.3641 16.9795 15.5673 17.1827C15.7705 17.3859 16.046 17.5 16.3333 17.5Z" fill="#4D4D4D"/>
</svg>
